<?xml version="1.0" encoding="iso-8859-1"?>
<!-- Generator: Adobe Illustrator 19.0.0, SVG Export Plug-In . SVG Version: 6.00 Build 0)  -->
<svg xmlns="http://www.w3.org/2000/svg" xmlns:xlink="http://www.w3.org/1999/xlink" version="1.1" id="Capa_1" x="0px" y="0px" viewBox="0 0 480.004 480.004" style="enable-background:new 0 0 480.004 480.004;" xml:space="preserve" width="512px" height="512px">
<g>
	<g>
		<path d="M479.887,430.645c-0.009-0.05-0.018-0.099-0.027-0.149L431.829,179.77l47.867-169.594    c0.735-2.596,0.109-5.388-1.664-7.422c-1.76-2.052-4.449-3.061-7.125-2.672L240,31.931L9.094,0.082    C4.717-0.522,0.679,2.536,0.075,6.913c-0.146,1.059-0.079,2.137,0.199,3.169l55.492,206.102L8.188,430.27    c-0.956,4.316,1.769,8.59,6.085,9.545c0.107,0.024,0.214,0.045,0.322,0.064l224,40c0.464,0.084,0.935,0.126,1.406,0.125    c0.456,0,0.91-0.039,1.359-0.117l232-40C477.714,439.137,480.637,434.999,479.887,430.645z M232,462.449L25.618,425.598    l46.195-207.859c0.276-1.259,0.247-2.567-0.086-3.813L18.86,17.574L232,46.973V462.449z M248,462.504V46.973l212.977-29.375    l-45.055,159.648c-0.343,1.197-0.399,2.458-0.164,3.68l46.852,244.578L248,462.504z" fill="#7687a8"/>
	</g>
</g>
<g>
	<g>
		<path d="M201.391,72.129l-136-24c-2.329-0.425-4.727,0.217-6.531,1.75c-1.813,1.517-2.861,3.76-2.859,6.125v40    c0,3.881,2.787,7.202,6.609,7.875l136,24c0.459,0.084,0.924,0.126,1.391,0.125c4.416-0.005,7.995-3.584,8-8v-40    C208.001,76.123,205.213,72.802,201.391,72.129z M192,110.465L72,89.293v-23.75l120,21.172V110.465z" fill="#7687a8"/>
	</g>
</g>
<g>
	<g>
		<path d="M392,216.005c-0.527,0-1.053,0.052-1.57,0.156l-120,24c-3.737,0.75-6.427,4.032-6.43,7.844v40    c0.001,4.418,3.582,7.999,8,8c0.527-0.002,1.053-0.054,1.57-0.156l120-24c3.737-0.75,6.427-4.032,6.43-7.844v-40    C400,219.586,396.418,216.004,392,216.005z M384,257.449l-104,20.797v-23.687l104-20.797V257.449z" fill="#7687a8"/>
	</g>
</g>
<g>
	<g>
		<path d="M209.391,240.129l-56-9.883c-2.33-0.43-4.729,0.213-6.531,1.75c-1.813,1.517-2.861,3.761-2.859,6.125v40    c0,3.881,2.787,7.202,6.609,7.875l56,9.883c0.459,0.084,0.924,0.126,1.391,0.125c4.416-0.005,7.995-3.584,8-8v-40    C216.001,244.123,213.213,240.802,209.391,240.129z M200,278.465l-40-7.055v-23.75l40,7.055V278.465z" fill="#7687a8"/>
	</g>
</g>
<g>
	<g>
		<path d="M407.993,54.125c-0.464,0-0.926,0.041-1.383,0.121l-56,9.883c-3.822,0.673-6.61,3.994-6.609,7.875v40    c0.005,4.416,3.584,7.995,8,8c0.466,0.001,0.932-0.041,1.391-0.125l56-9.883c3.822-0.673,6.61-3.994,6.609-7.875v-40    C415.997,57.702,412.412,54.122,407.993,54.125z M400,95.41l-40,7.055v-23.75l40-7.055V95.41z" fill="#7687a8"/>
	</g>
</g>
<g>
	<g>
		
			<rect x="132.007" y="78.953" transform="matrix(0.1738 -0.9848 0.9848 0.1738 -30.0806 260.1553)" width="15.992" height="138.104" fill="#7687a8"/>
	</g>
</g>
<g>
	<g>
		
			<rect x="175.991" y="169.869" transform="matrix(0.1738 -0.9848 0.9848 0.1738 -47.2803 348.3737)" width="15.992" height="64.992" fill="#7687a8"/>
	</g>
</g>
<g>
	<g>
		
			<rect x="102.678" y="164.982" transform="matrix(0.1738 -0.9848 0.9848 0.1738 -93.7007 264.322)" width="15.992" height="46.04" fill="#7687a8"/>
	</g>
</g>
<g>
	<g>
		
			<rect x="167.992" y="385.855" transform="matrix(0.1738 -0.9848 0.9848 0.1738 -266.5851 518.9396)" width="15.992" height="64.992" fill="#7687a8"/>
	</g>
</g>
<g>
	<g>
		
			<rect x="94.682" y="380.989" transform="matrix(0.1738 -0.9848 0.9848 0.1738 -313.0273 434.9164)" width="15.992" height="46.04" fill="#7687a8"/>
	</g>
</g>
<g>
	<g>
		
			<rect x="132.007" y="294.971" transform="matrix(0.1738 -0.9848 0.9848 0.1738 -242.8116 438.6326)" width="15.992" height="138.104" fill="#7687a8"/>
	</g>
</g>
<g>
	<g>
		<rect x="99.994" y="231.589" transform="matrix(0.1963 -0.9805 0.9805 0.1963 -160.287 308.4131)" width="16" height="40.792" fill="#7687a8"/>
	</g>
</g>
<g>
	<g>
		
			<rect x="135.999" y="250.896" transform="matrix(0.1843 -0.9829 0.9829 0.1843 -193.1414 399.3034)" width="15.992" height="130.232" fill="#7687a8"/>
	</g>
</g>
<g>
	<g>
		
			<rect x="270.95" y="139.996" transform="matrix(0.9848 -0.1739 0.1739 0.9848 -20.5553 61.3813)" width="138.104" height="15.992" fill="#7687a8"/>
	</g>
</g>
<g>
	<g>
		
			<rect x="263.504" y="194.356" transform="matrix(0.9848 -0.1739 0.1739 0.9848 -30.679 54.5579)" width="64.992" height="15.992" fill="#7687a8"/>
	</g>
</g>
<g>
	<g>
		
			<rect x="346.326" y="180.001" transform="matrix(0.9848 -0.1738 0.1738 0.9848 -27.0503 67.0452)" width="46.04" height="15.992" fill="#7687a8"/>
	</g>
</g>
<g>
	<g>
		
			<rect x="271.499" y="410.321" transform="matrix(0.9848 -0.1739 0.1739 0.9848 -68.1138 59.2388)" width="64.992" height="15.992" fill="#7687a8"/>
	</g>
</g>
<g>
	<g>
		
			<rect x="354.323" y="396.002" transform="matrix(0.9848 -0.1739 0.1739 0.9848 -64.5063 71.7764)" width="46.04" height="15.992" fill="#7687a8"/>
	</g>
</g>
<g>
	<g>
		<rect x="270.952" y="356" transform="matrix(0.9848 -0.1739 0.1739 0.9848 -58.1185 64.6731)" width="138.104" height="15.992" fill="#7687a8"/>
	</g>
</g>
<g>
	<g>
		<rect x="287.602" y="92.002" transform="matrix(0.9805 -0.1963 0.1963 0.9805 -13.6381 62.4063)" width="40.792" height="16" fill="#7687a8"/>
	</g>
</g>
<g>
	<g>
		
			<rect x="270.889" y="308.007" transform="matrix(0.9828 -0.1846 0.1846 0.9828 -52.5694 67.4729)" width="130.233" height="15.992" fill="#7687a8"/>
	</g>
</g>
<g>
</g>
<g>
</g>
<g>
</g>
<g>
</g>
<g>
</g>
<g>
</g>
<g>
</g>
<g>
</g>
<g>
</g>
<g>
</g>
<g>
</g>
<g>
</g>
<g>
</g>
<g>
</g>
<g>
</g>
</svg>
