<?xml version="1.0"?>
<svg xmlns="http://www.w3.org/2000/svg" height="512px" viewBox="0 0 496.002 496.002" width="512px"><path d="m440 320.003906c4.425781 0 8-3.585937 8-8v-176h-16v72h-56c-4.425781 0-8 3.582032-8 8v56h-128v-8c0-4.417968-3.574219-8-8-8h-72v-200h208v-16h-216c-4.425781 0-8 3.582032-8 8v208h-88c-4.425781 0-8 3.582032-8 8v40h-40c-4.425781 0-8 3.582032-8 8v176c0 4.414063 3.574219 8 8 8h176c4.425781 0 8-3.585937 8-8v-40h40c4.425781 0 8-3.585937 8-8v-120zm-264 160h-160v-160h160zm48-48h-32v-120c0-4.417968-3.574219-8-8-8h-120v-32h160zm208-160h-36.6875l36.6875-36.691406zm-11.3125-48-36.6875 36.6875v-36.6875zm11.3125 64v16h-192v-16zm0 0" fill="#7687a8"/><path d="m395.664062 46.976562-42.800781 30.578126-3.207031-3.207032c-3.128906-3.128906-8.183594-3.128906-11.3125 0l-24 24c-3.128906 3.125-3.128906 8.183594 0 11.308594l30.34375 30.347656-38.34375 38.34375 11.3125 11.308594 38.34375-38.34375 30.34375 30.34375c1.558594 1.5625 3.609375 2.347656 5.65625 2.347656s4.097656-.785156 5.65625-2.347656l24-24c3.128906-3.125 3.128906-8.183594 0-11.308594l-3.207031-3.210937 30.574219-42.796875 9.328124 9.324218c1.550782 1.554688 3.601563 2.339844 5.648438 2.339844s4.097656-.785156 5.65625-2.347656l24-24c3.128906-3.125 3.128906-8.183594 0-11.308594l-72-72c-3.128906-3.128906-8.183594-3.128906-11.3125 0l-24 24c-3.128906 3.125-3.128906 8.183594 0 11.308594zm-3.664062 117.714844-60.6875-60.6875 12.6875-12.691406 60.6875 60.691406zm14.984375-33.027344-42.648437-42.644531 42.800781-30.578125 30.414062 30.417969zm9.015625-112.351562 60.6875 60.691406-12.6875 12.6875-60.6875-60.6875zm0 0" fill="#7687a8"/><path d="m488 416.003906h-8v-40c0-4.417968-3.574219-8-8-8h-176c-4.425781 0-8 3.582032-8 8v40h-8c-4.425781 0-8 3.582032-8 8v64c0 4.414063 3.574219 8 8 8h208c4.425781 0 8-3.585937 8-8v-64c0-4.417968-3.574219-8-8-8zm-184-32h160v32h-160zm-8 48h184v16h-192v-16zm-8 48v-16h192v16zm0 0" fill="#7687a8"/><path d="m48 352.003906h96v16h-96zm0 0" fill="#7687a8"/><path d="m32 384.003906h128v16h-128zm0 0" fill="#7687a8"/><path d="m40 464.003906h32c4.425781 0 8-3.585937 8-8v-32c0-4.417968-3.574219-8-8-8h-32c-4.425781 0-8 3.582032-8 8v32c0 4.414063 3.574219 8 8 8zm8-32h16v16h-16zm0 0" fill="#7687a8"/><path d="m152 416.003906h-32c-4.425781 0-8 3.582032-8 8v32c0 4.414063 3.574219 8 8 8h32c4.425781 0 8-3.585937 8-8v-32c0-4.417968-3.574219-8-8-8zm-8 32h-16v-16h16zm0 0" fill="#7687a8"/><path d="m176 72.003906h16v96h-16zm0 0" fill="#7687a8"/><path d="m176 184.003906h16v16h-16zm0 0" fill="#7687a8"/></svg>
